<mxfile host="app.diagrams.net" modified="2024-01-11T16:56:08.569Z" agent="Mozilla/5.0 (Windows NT 10.0; Win64; x64) AppleWebKit/537.36 (KHTML, like Gecko) Chrome/118.0.0.0 YaBrowser/23.11.0.0 Safari/537.36" etag="QgDgt2PJs7cK2cHP_LCc" version="22.1.18" type="github">
  <diagram id="XVQ7QDeZXJ-Wu7UQJdet" name="Страница — 1">
    <mxGraphModel dx="1386" dy="791" grid="1" gridSize="15" guides="1" tooltips="1" connect="1" arrows="1" fold="1" page="1" pageScale="1" pageWidth="1442" pageHeight="2039" math="0" shadow="0">
      <root>
        <mxCell id="0" />
        <mxCell id="1" parent="0" />
        <mxCell id="1iPv478AmknM1evHEOFY-1" value="Actor" style="shape=umlActor;verticalLabelPosition=bottom;verticalAlign=top;html=1;outlineConnect=0;" parent="1" vertex="1">
          <mxGeometry x="285" y="150" width="30" height="60" as="geometry" />
        </mxCell>
        <mxCell id="1iPv478AmknM1evHEOFY-2" value="интерфейс" style="whiteSpace=wrap;html=1;aspect=fixed;" parent="1" vertex="1">
          <mxGeometry x="420" y="140" width="80" height="80" as="geometry" />
        </mxCell>
        <mxCell id="1iPv478AmknM1evHEOFY-9" value="" style="endArrow=classic;html=1;rounded=0;entryX=0.025;entryY=0.375;entryDx=0;entryDy=0;entryPerimeter=0;" parent="1" target="1iPv478AmknM1evHEOFY-2" edge="1">
          <mxGeometry width="50" height="50" relative="1" as="geometry">
            <mxPoint x="330" y="170" as="sourcePoint" />
            <mxPoint x="380" y="150" as="targetPoint" />
          </mxGeometry>
        </mxCell>
        <mxCell id="1iPv478AmknM1evHEOFY-8" value="хранилище" style="whiteSpace=wrap;html=1;aspect=fixed;" parent="1" vertex="1">
          <mxGeometry x="840" y="140" width="80" height="80" as="geometry" />
        </mxCell>
        <mxCell id="1iPv478AmknM1evHEOFY-13" value="" style="endArrow=classic;html=1;rounded=0;exitX=0;exitY=0.75;exitDx=0;exitDy=0;" parent="1" source="1iPv478AmknM1evHEOFY-2" edge="1">
          <mxGeometry width="50" height="50" relative="1" as="geometry">
            <mxPoint x="345" y="260" as="sourcePoint" />
            <mxPoint x="330" y="200" as="targetPoint" />
          </mxGeometry>
        </mxCell>
        <mxCell id="1iPv478AmknM1evHEOFY-14" value="запрос" style="text;html=1;strokeColor=none;fillColor=none;align=center;verticalAlign=middle;whiteSpace=wrap;rounded=0;" parent="1" vertex="1">
          <mxGeometry x="345" y="150" width="60" height="30" as="geometry" />
        </mxCell>
        <mxCell id="1iPv478AmknM1evHEOFY-18" value="ответ" style="text;html=1;strokeColor=none;fillColor=none;align=center;verticalAlign=middle;whiteSpace=wrap;rounded=0;" parent="1" vertex="1">
          <mxGeometry x="345" y="180" width="60" height="30" as="geometry" />
        </mxCell>
        <mxCell id="HI5XMB7hxuVBcPqJSpDt-1" value="" style="endArrow=classic;html=1;rounded=0;exitX=1;exitY=0.25;exitDx=0;exitDy=0;entryX=0;entryY=0.25;entryDx=0;entryDy=0;" edge="1" parent="1" source="1iPv478AmknM1evHEOFY-2" target="HI5XMB7hxuVBcPqJSpDt-2">
          <mxGeometry width="50" height="50" relative="1" as="geometry">
            <mxPoint x="500" y="160" as="sourcePoint" />
            <mxPoint x="1095" y="160" as="targetPoint" />
          </mxGeometry>
        </mxCell>
        <mxCell id="HI5XMB7hxuVBcPqJSpDt-2" value="Компонент шифрования файлов" style="whiteSpace=wrap;html=1;aspect=fixed;" vertex="1" parent="1">
          <mxGeometry x="560" y="140" width="80" height="80" as="geometry" />
        </mxCell>
        <mxCell id="HI5XMB7hxuVBcPqJSpDt-3" value="Компонент алгоритма шифрования" style="whiteSpace=wrap;html=1;aspect=fixed;" vertex="1" parent="1">
          <mxGeometry x="705" y="140" width="80" height="80" as="geometry" />
        </mxCell>
        <mxCell id="HI5XMB7hxuVBcPqJSpDt-4" value="" style="endArrow=classic;html=1;rounded=0;exitX=1;exitY=0.25;exitDx=0;exitDy=0;entryX=0;entryY=0.25;entryDx=0;entryDy=0;" edge="1" parent="1" source="HI5XMB7hxuVBcPqJSpDt-2" target="HI5XMB7hxuVBcPqJSpDt-3">
          <mxGeometry width="50" height="50" relative="1" as="geometry">
            <mxPoint x="630" y="365" as="sourcePoint" />
            <mxPoint x="680" y="315" as="targetPoint" />
          </mxGeometry>
        </mxCell>
        <mxCell id="HI5XMB7hxuVBcPqJSpDt-5" value="" style="endArrow=classic;html=1;rounded=0;exitX=1;exitY=0.25;exitDx=0;exitDy=0;entryX=0;entryY=0.25;entryDx=0;entryDy=0;" edge="1" parent="1" source="HI5XMB7hxuVBcPqJSpDt-3" target="1iPv478AmknM1evHEOFY-8">
          <mxGeometry width="50" height="50" relative="1" as="geometry">
            <mxPoint x="795" y="155" as="sourcePoint" />
            <mxPoint x="845" y="105" as="targetPoint" />
          </mxGeometry>
        </mxCell>
        <mxCell id="HI5XMB7hxuVBcPqJSpDt-6" value="" style="endArrow=classic;html=1;rounded=0;entryX=1;entryY=0.75;entryDx=0;entryDy=0;exitX=0;exitY=0.75;exitDx=0;exitDy=0;" edge="1" parent="1" source="HI5XMB7hxuVBcPqJSpDt-2" target="1iPv478AmknM1evHEOFY-2">
          <mxGeometry width="50" height="50" relative="1" as="geometry">
            <mxPoint x="495" y="350" as="sourcePoint" />
            <mxPoint x="545" y="300" as="targetPoint" />
          </mxGeometry>
        </mxCell>
        <mxCell id="HI5XMB7hxuVBcPqJSpDt-7" value="" style="endArrow=classic;html=1;rounded=0;entryX=1;entryY=0.75;entryDx=0;entryDy=0;exitX=0;exitY=0.75;exitDx=0;exitDy=0;" edge="1" parent="1" source="HI5XMB7hxuVBcPqJSpDt-3" target="HI5XMB7hxuVBcPqJSpDt-2">
          <mxGeometry width="50" height="50" relative="1" as="geometry">
            <mxPoint x="645" y="305" as="sourcePoint" />
            <mxPoint x="695" y="255" as="targetPoint" />
          </mxGeometry>
        </mxCell>
        <mxCell id="HI5XMB7hxuVBcPqJSpDt-8" value="" style="endArrow=classic;html=1;rounded=0;entryX=1;entryY=0.75;entryDx=0;entryDy=0;exitX=0;exitY=0.75;exitDx=0;exitDy=0;" edge="1" parent="1" source="1iPv478AmknM1evHEOFY-8" target="HI5XMB7hxuVBcPqJSpDt-3">
          <mxGeometry width="50" height="50" relative="1" as="geometry">
            <mxPoint x="825" y="305" as="sourcePoint" />
            <mxPoint x="875" y="255" as="targetPoint" />
          </mxGeometry>
        </mxCell>
      </root>
    </mxGraphModel>
  </diagram>
</mxfile>
